<svg width="500" height="277" viewBox="0 0 500 277" fill="none" xmlns="http://www.w3.org/2000/svg">
<path d="M461.897 275.587L297.771 275.046L295.457 41.2154L221.443 246.922V63.9837C223.858 64.3986 226.251 64.6249 228.621 64.6249C232.76 64.6249 236.831 63.9418 240.854 62.3996C266.728 52.4864 306.724 26.4011 354.991 5.59197C363.779 1.80354 374.736 -0.000542483 386.665 -0.000542483C451.263 -0.000542483 544.375 52.8762 476.064 129.672C398.736 216.604 548.36 220.055 461.897 275.587ZM211.427 274.763L135.022 274.51H211.517L211.427 274.763ZM107.689 274.42L53.5184 274.242C53.5184 274.242 -21.3453 119.161 43.8813 56.8029C69.8786 31.9476 93.1173 23.4048 114.202 23.4048C137.367 23.4048 157.932 33.7077 176.731 44.0148C189.394 50.9547 201.254 57.8988 212.556 61.6893H107.689V224.671C100.597 221.851 96.8636 219.984 96.8636 219.984L94.1147 218.846L94.0297 222.26L91.5095 222.932L92.5841 225.679L89.0674 227.632C89.0674 227.632 93.4478 229.811 101.397 233.024C103.295 233.791 105.396 234.616 107.689 235.484V274.42" fill="#E5F1F3"/>
<path d="M134.445 56.3779H138.112V50.8252H134.445V56.3779Z" fill="#2B478B"/>
<path d="M140.731 56.3779H144.398V50.8252H140.731V56.3779Z" fill="#2B478B"/>
<path d="M147.017 56.3779H150.684V50.8252H147.017V56.3779Z" fill="#2B478B"/>
<path d="M153.303 56.3779H156.97V50.8252H153.303V56.3779Z" fill="#2B478B"/>
<path d="M159.589 56.3779H163.256V50.8252H159.589V56.3779Z" fill="#2B478B"/>
<path d="M165.875 56.3779H169.542V50.8252H165.875V56.3779Z" fill="#2B478B"/>
<path d="M172.162 56.3779H175.828V50.8252H172.162V56.3779Z" fill="#2B478B"/>
<path d="M178.448 56.3779H182.115V50.8252H178.448V56.3779Z" fill="#2B478B"/>
<path d="M184.734 56.3779H188.401V50.8252H184.734V56.3779Z" fill="#2B478B"/>
<path d="M191.02 56.3779H194.687V50.8252H191.02V56.3779Z" fill="#2B478B"/>
<path d="M107.689 274.51H221.443V61.6891H107.689V274.51Z" fill="#77A4E5"/>
<path d="M112.975 268.314H216.158V67.5454H112.975V268.314Z" fill="#9FC1F4"/>
<path d="M167.198 262.139H216.158V73.2784H167.198V262.139Z" fill="#BDD8FF"/>
<path d="M112.82 74.0706V262.931H161.779V74.0706H112.82Z" fill="#BDD8FF"/>
<path d="M238.138 258.336L239.618 259.815C239.618 259.815 231.913 260.058 218.83 259.214C214.274 258.92 209.069 258.497 203.311 257.885C194.737 256.974 184.939 255.648 174.236 253.718C170.362 253.022 166.368 252.245 162.271 251.381C160.813 251.075 159.367 250.761 157.942 250.443C150.359 248.75 143.261 246.918 136.718 245.055H136.716C131.529 243.58 126.69 242.084 122.241 240.624H122.239C113.819 237.854 106.788 235.201 101.397 233.024C93.4478 229.812 89.0674 227.632 89.0674 227.632L92.584 225.679L91.5095 222.932L94.0296 222.26L94.1147 218.846L96.8636 219.984C96.8636 219.984 101.517 222.31 110.3 225.692C115.732 227.781 122.74 230.279 131.206 232.875C135.433 234.172 140.019 235.496 144.957 236.804C151.887 238.646 159.501 240.462 167.759 242.151C172.608 243.142 177.681 244.094 182.965 244.976C191.774 246.451 201.178 247.744 211.129 248.758C215.932 249.248 220.862 249.676 225.916 250.026H225.918C230.459 250.34 235.1 250.591 239.838 250.776L238.099 253.076L239.679 253.592L238.69 254.581L240.064 256.41L238.138 258.336" fill="#FFA412"/>
<path d="M225.916 250.026L218.83 259.214C214.275 258.921 209.07 258.497 203.312 257.885L211.129 248.758C215.932 249.248 220.862 249.676 225.916 250.026Z" fill="#B64C41"/>
<path d="M182.967 244.976L174.236 253.718C170.362 253.022 166.368 252.245 162.271 251.381C160.813 251.076 159.367 250.761 157.942 250.443L167.759 242.151C172.608 243.142 177.681 244.094 182.967 244.976" fill="#B64C41"/>
<path d="M144.958 236.804L136.718 245.056H136.716C131.529 243.581 126.691 242.084 122.241 240.624C124.37 238.69 127.905 235.666 131.206 232.875C135.433 234.172 140.019 235.497 144.958 236.804" fill="#B64C41"/>
<path d="M110.3 225.692L101.398 233.023C93.4478 229.811 89.0674 227.632 89.0674 227.632L92.584 225.679L91.5095 222.932L94.0296 222.262L94.1147 218.846L96.8636 219.984C96.8636 219.984 101.517 222.31 110.3 225.692Z" fill="#B64C41"/>
<path d="M210.417 51.1642L212.527 51.7676C212.527 51.7676 207.039 56.1344 196.851 62.3681C193.306 64.5368 189.193 66.9318 184.541 69.4484C177.616 73.1928 169.507 77.2012 160.314 81.1301C156.989 82.5528 153.521 83.963 149.917 85.3481C148.633 85.8405 147.355 86.3224 146.089 86.7855C139.351 89.2601 132.875 91.3429 126.784 93.0968L126.782 93.0988C121.954 94.4902 117.368 95.6761 113.091 96.684L113.09 96.6861C104.994 98.5908 97.9976 99.8606 92.5352 100.701C84.4783 101.935 79.756 102.23 79.756 102.23L80.9862 98.4944L78.2978 96.4766L79.6837 94.4881L77.3853 91.2172L80.1893 90.8128C80.1893 90.8128 85.2148 90.5132 94.0009 88.9898C99.4334 88.0469 106.305 86.6409 114.314 84.5476C118.314 83.502 122.596 82.2888 127.125 80.8744C133.486 78.8922 140.333 76.5182 147.562 73.6768C151.807 72.0089 156.189 70.1838 160.679 68.1765C168.166 64.8385 175.961 61.0103 183.969 56.6226C187.833 54.5063 191.747 52.26 195.699 49.8776L195.701 49.8755C199.251 47.734 202.834 45.4773 206.44 43.1075L206.754 46.217L208.269 45.8545L208.227 47.3192L210.501 48.3103L210.417 51.1642" fill="#FFA412"/>
<path d="M195.699 49.8775L196.852 62.368C193.306 64.5367 189.193 66.9317 184.541 69.4482L183.969 56.6225C187.833 54.5062 191.747 52.2599 195.699 49.8775Z" fill="#B64C41"/>
<path d="M160.679 68.1771L160.314 81.1307C156.989 82.5535 153.521 83.9637 149.917 85.3487C148.633 85.8411 147.354 86.3231 146.089 86.7861L147.562 73.6775C151.807 72.0096 156.189 70.1845 160.679 68.1771" fill="#B64C41"/>
<path d="M127.125 80.875L126.784 93.0973L126.782 93.0994C121.954 94.4907 117.368 95.6767 113.091 96.6846C113.317 93.7154 113.82 88.9589 114.314 84.5482C118.314 83.5026 122.597 82.2894 127.125 80.875Z" fill="#B64C41"/>
<path d="M94.0009 88.9898L92.5352 100.701C84.4783 101.935 79.756 102.23 79.756 102.23L80.9861 98.4944L78.2978 96.4766L79.6837 94.4881L77.3853 91.2172L80.1893 90.8128C80.1893 90.8128 85.2148 90.5131 94.0009 88.9898" fill="#B64C41"/>
<path d="M352.089 63.5505V273.45H470.648V63.5505H352.089" fill="#BDD8FF"/>
<path d="M354.017 63.5505V273.45H431.51V63.5505H354.017" fill="#AFCDFB"/>
<path d="M297.777 275.836H211.041L211.427 274.763L297.771 275.046L297.777 275.836Z" fill="#DEEBEF"/>
<path d="M297.771 275.047L211.427 274.764L211.517 274.51H221.443V259.373C228.427 259.77 233.636 259.847 236.647 259.847C238.589 259.847 239.618 259.816 239.618 259.816L238.139 258.336L240.064 256.411L238.69 254.581L239.679 253.592L238.099 253.077L239.838 250.776C235.1 250.592 230.459 250.34 225.918 250.026H225.916C224.414 249.921 222.922 249.81 221.443 249.693V246.923L295.457 41.2159L297.771 275.047" fill="#C9E0E5"/>
<path d="M221.443 274.51H211.517L213.747 268.314H216.158V262.139V261.615L217.064 259.096C217.663 259.138 218.252 259.178 218.83 259.214C219.727 259.272 220.598 259.325 221.443 259.373V274.51V274.51ZM221.443 249.692C221.12 249.667 220.797 249.642 220.475 249.615L221.443 246.922V249.692Z" fill="#71A3DA"/>
<path d="M216.158 268.314H213.747L215.97 262.139H216.158V268.314Z" fill="#91BAE6"/>
<path d="M216.158 262.139H215.97L216.158 261.615V262.139Z" fill="#A9CCEF"/>
<path d="M236.647 259.847C233.636 259.847 228.426 259.769 221.443 259.373C220.598 259.325 219.726 259.273 218.83 259.214L225.916 250.026C224.085 249.898 222.272 249.762 220.474 249.615C220.797 249.642 221.12 249.667 221.443 249.692C222.922 249.81 224.414 249.921 225.916 250.026H225.918C230.459 250.34 235.1 250.591 239.838 250.776L238.099 253.077L239.679 253.592L238.69 254.581L240.064 256.41L238.138 258.336L239.618 259.815C239.618 259.815 238.589 259.847 236.647 259.847" fill="#DEA331"/>
<path d="M218.83 259.214C218.252 259.178 217.663 259.138 217.063 259.097L220.475 249.615C222.273 249.762 224.085 249.898 225.916 250.026L218.83 259.214" fill="#A35C57"/>
<path d="M300.545 41.2153V274.51H352.089V61.268L300.545 41.2153" fill="#9FC1F4"/>
<path d="M295.458 41.2153V274.51H300.545V41.2153H295.458" fill="#77A4E5"/>
<path d="M465.843 269.477H356.894V66.5965H465.843V269.477ZM352.089 61.5613V274.51H470.648V61.5613H352.089" fill="#77A4E5"/>
<path d="M50.5567 241.579C50.5567 241.579 55.8219 235.437 50.8817 231.536C50.8817 231.536 47.273 229.353 44.3309 229.529C44.3309 229.529 48.5001 236.521 47.1511 237.216C45.8023 237.912 43.0672 229.091 43.0672 229.091C43.0672 229.091 34.8556 228.294 32.2136 229.564C32.2136 229.564 39.2339 235.31 37.7554 235.651C36.2769 235.993 28.6942 230.354 28.6942 230.354C28.6942 230.354 21.0515 231.655 21.4591 236.318C21.8666 240.98 24.4999 242.419 25.6574 242.296C26.8151 242.172 33.5856 239.586 33.7332 240.535C33.8807 241.485 29.805 244.584 26.9511 244.728C26.9511 244.728 32.3393 250.671 35.9207 248.955C39.5015 247.241 39.8074 244.523 42.0396 243.503C44.272 242.482 46.1776 242.486 45.2558 243.526C44.3343 244.565 40.2942 245.575 39.0175 247.834C37.741 250.092 36.5954 251.614 40.3007 251.056C44.0057 250.499 50.0284 247.79 50.2927 244.684C50.5567 241.579 50.5567 241.579 50.5567 241.579" fill="#77A4E5"/>
<path d="M25.2144 236.444C25.2144 236.444 45.9728 235.643 50.5566 241.58C50.5566 241.58 51.571 244.618 54.6906 247.382L55.1767 248.708C55.1767 248.708 51.5798 244.913 50.2926 244.685C50.2926 244.685 52.3056 237.33 25.2144 236.444Z" fill="#77A4E5"/>
<path d="M54.6905 247.381C54.6905 247.381 59.1461 250.677 59.4556 256.565L58.647 256.637C58.647 256.637 57.224 250.55 54.6517 248.167C52.0797 245.787 54.6905 247.381 54.6905 247.381Z" fill="#77A4E5"/>
<path d="M68.9642 233.855C68.9642 233.855 60.5894 229.166 64.4977 222.8C64.4977 222.8 67.6242 218.892 70.974 217.886C70.974 217.886 69.1877 227.378 70.974 227.603C72.761 227.825 72.2026 216.883 72.2026 216.883C72.2026 216.883 81.0243 212.64 84.4856 212.973C84.4856 212.973 79.0144 222.243 80.8007 222.019C82.5879 221.796 88.7294 212.415 88.7294 212.415C88.7294 212.415 97.7743 210.741 99.2257 216.101C100.678 221.461 98.3325 224.141 96.9927 224.476C95.6525 224.81 87.0544 224.699 87.2775 225.815C87.5007 226.932 93.3076 228.72 96.5458 227.714C96.5458 227.714 92.9727 236.535 88.2824 236.089C83.5926 235.643 82.1409 232.738 79.2374 232.516C76.3342 232.292 74.2125 233.074 75.6643 233.855C77.1158 234.637 82.0292 234.111 84.3742 236.106C86.7191 238.098 88.6175 239.326 84.2627 240.221C79.9075 241.114 72.0911 240.556 70.5273 237.206C68.9642 233.855 68.9642 233.855 68.9642 233.855" fill="#9FC1F4"/>
<path d="M95.0941 217.775C95.0941 217.775 71.6442 225.369 68.9642 233.855C68.9642 233.855 69.0761 237.652 66.731 242.006V243.683C66.731 243.683 69.1878 237.987 70.5274 237.206C70.5274 237.206 65.2793 229.836 95.0941 217.775" fill="#77A4E5"/>
<path d="M66.7309 242.006C66.7309 242.006 63.1145 247.498 65.1764 254.183L66.1065 253.933C66.1065 253.933 65.2036 246.57 67.0955 242.868C68.9876 239.165 66.7309 242.006 66.7309 242.006" fill="#77A4E5"/>
<path d="M55.6407 227.388C55.6407 227.388 66.6804 221.206 61.5285 212.816C61.5285 212.816 57.4071 207.664 52.9911 206.34C52.9911 206.34 55.3463 218.851 52.9911 219.145C50.6359 219.44 51.3716 205.013 51.3716 205.013C51.3716 205.013 39.7431 199.421 35.1802 199.863C35.1802 199.863 42.3927 212.079 40.0377 211.786C37.6825 211.49 29.5867 199.125 29.5867 199.125C29.5867 199.125 17.6636 196.919 15.7501 203.985C13.8368 211.05 16.9279 214.583 18.6941 215.023C20.4605 215.465 31.7946 215.318 31.5002 216.789C31.2058 218.262 23.5516 220.618 19.2829 219.293C19.2829 219.293 23.9933 230.92 30.1755 230.332C36.3576 229.743 38.2713 225.917 42.0985 225.621C45.9257 225.328 48.7224 226.357 46.8087 227.388C44.8952 228.419 38.4184 227.725 35.3273 230.353C32.2363 232.982 29.734 234.6 35.4744 235.778C41.2151 236.955 51.5191 236.22 53.5797 231.805C55.6407 227.388 55.6407 227.388 55.6407 227.388" fill="#9FC1F4"/>
<path d="M21.1963 206.19C21.1963 206.19 52.1078 216.2 55.6406 227.387C55.6406 227.387 55.4933 232.393 58.5846 238.132V240.341C58.5846 240.341 55.3462 232.833 53.5796 231.804C53.5796 231.804 60.4979 222.088 21.1963 206.19" fill="#77A4E5"/>
<path d="M58.5846 238.132C58.5846 238.132 63.3516 245.372 60.6337 254.183L59.4075 253.854C59.4075 253.854 60.5979 244.148 58.1035 239.268C55.6096 234.386 58.5846 238.132 58.5846 238.132Z" fill="#77A4E5"/>
<path d="M34.3867 251.667C34.3867 263.61 44.0698 273.293 56.0137 273.293C57.4712 273.293 58.8975 273.15 60.2761 272.872C70.1771 270.894 77.6379 262.152 77.6379 251.667H34.3867Z" fill="#77A4E5"/>
<path d="M42.9165 251.666C42.9165 262.151 50.3748 270.891 60.2758 272.871C70.1769 270.893 77.6377 262.151 77.6377 251.666H42.9165Z" fill="#9FC1F4"/>
<path d="M34.0898 274.393H77.9376C77.9376 273.655 77.6379 272.989 77.156 272.507C76.6718 272.025 76.0054 271.725 75.2691 271.725H36.7581C35.2836 271.725 34.0898 272.92 34.0898 274.393Z" fill="#77A4E5"/>
<path d="M61.4721 271.726H58.54C66.4729 268.522 69.6298 260.75 69.6298 251.667H75.0021C75.0021 260.748 69.4045 268.522 61.4721 271.726Z" fill="#BDD8FF"/>
<path d="M54.6255 274.393H77.9375C77.9375 273.655 77.6379 272.989 77.156 272.507C76.6717 272.025 76.0054 271.725 75.2691 271.725H56.4459C54.9737 271.725 54.6255 272.92 54.6255 274.393Z" fill="#9FC1F4"/>
<path d="M34.2272 252.33H78.0171C78.2002 252.33 78.3488 252.181 78.3488 251.999C78.3488 251.817 78.2002 251.666 78.0171 251.666H34.2272C34.0441 251.666 33.8955 251.817 33.8955 251.999C33.8955 252.181 34.0441 252.33 34.2272 252.33Z" fill="#77A4E5"/>
<path d="M88.1363 198.898H101.877C103.098 198.898 104.087 197.909 104.087 196.688V171.684C104.087 170.462 103.098 169.473 101.877 169.473H88.1363C86.916 169.473 85.9268 170.462 85.9268 171.684V196.688C85.9268 197.909 86.916 198.898 88.1363 198.898Z" fill="#77A4E5"/>
<path d="M95.0066 175.849L98.7569 182.345H91.2563L95.0066 175.849Z" fill="#2B478B"/>
<path d="M95.0066 192.822L98.7569 186.327H91.2563L95.0066 192.822Z" fill="#2B478B"/>
<path d="M188.285 134.011C188.384 134.011 188.48 133.977 188.56 133.908C188.734 133.757 188.755 133.493 188.602 133.317L164.882 105.868C164.807 105.78 164.696 105.725 164.576 105.723C164.459 105.719 164.346 105.767 164.264 105.853L144.19 126.807C144.029 126.972 144.035 127.239 144.203 127.398C144.371 127.559 144.635 127.553 144.796 127.385L164.551 106.765L187.969 133.866C188.051 133.963 188.168 134.011 188.285 134.011Z" fill="#2B478B"/>
<path d="M163.021 106.981C163.021 107.791 163.679 108.447 164.488 108.447C165.299 108.447 165.955 107.791 165.955 106.981C165.955 106.17 165.299 105.514 164.488 105.514C163.679 105.514 163.021 106.17 163.021 106.981Z" fill="#B64C41"/>
<path d="M139.493 141.902L186.496 150.453L189.639 133.173L142.637 124.619L139.493 141.902" fill="#B64C41"/>
<path d="M148.362 136.701C148.392 136.609 148.442 136.542 148.511 136.504C148.582 136.464 148.654 136.452 148.727 136.462L149.626 136.599C149.708 136.611 149.775 136.649 149.829 136.716C149.884 136.779 149.9 136.856 149.879 136.944C149.81 137.244 149.689 137.535 149.515 137.818C149.339 138.101 149.1 138.344 148.796 138.547C148.494 138.753 148.128 138.899 147.698 138.994C147.269 139.086 146.766 139.09 146.19 139.002C145.678 138.924 145.24 138.782 144.872 138.57C144.503 138.359 144.201 138.099 143.971 137.787C143.738 137.477 143.574 137.12 143.48 136.722C143.386 136.322 143.357 135.897 143.394 135.45C143.422 135.167 143.461 134.855 143.514 134.516C143.566 134.176 143.621 133.866 143.677 133.587C143.774 133.15 143.927 132.754 144.136 132.399C144.343 132.045 144.605 131.754 144.92 131.526C145.234 131.297 145.599 131.138 146.011 131.046C146.426 130.954 146.889 130.947 147.399 131.025C147.975 131.111 148.455 131.264 148.838 131.48C149.219 131.697 149.525 131.947 149.756 132.232C149.984 132.515 150.139 132.821 150.223 133.147C150.305 133.472 150.336 133.787 150.313 134.084C150.307 134.174 150.267 134.241 150.198 134.287C150.127 134.333 150.049 134.35 149.967 134.338L149.071 134.201C148.997 134.191 148.93 134.157 148.872 134.099C148.811 134.04 148.781 133.963 148.781 133.864C148.781 133.713 148.752 133.56 148.691 133.407C148.633 133.256 148.541 133.112 148.417 132.98C148.293 132.848 148.13 132.73 147.927 132.628C147.723 132.525 147.476 132.452 147.189 132.41C146.9 132.366 146.642 132.372 146.416 132.429C146.187 132.483 145.99 132.575 145.823 132.701C145.657 132.827 145.519 132.988 145.41 133.183C145.301 133.378 145.221 133.588 145.173 133.816C145.115 134.095 145.06 134.403 145.01 134.742C144.957 135.084 144.918 135.394 144.89 135.677C144.869 135.915 144.882 136.142 144.93 136.358C144.976 136.571 145.06 136.764 145.182 136.934C145.303 137.104 145.465 137.248 145.666 137.37C145.867 137.491 146.11 137.573 146.399 137.617C146.686 137.661 146.944 137.665 147.168 137.627C147.392 137.59 147.587 137.525 147.746 137.437C147.908 137.347 148.04 137.24 148.142 137.11C148.245 136.982 148.318 136.846 148.362 136.701" fill="white"/>
<path d="M156.168 138.985C156.249 138.998 156.314 139.038 156.365 139.107C156.415 139.174 156.434 139.249 156.421 139.331L156.302 140.117C156.289 140.198 156.249 140.263 156.18 140.314C156.113 140.364 156.038 140.383 155.956 140.37L151.103 139.635C151.021 139.622 150.956 139.582 150.906 139.513C150.856 139.446 150.837 139.371 150.849 139.289L151.935 132.131C151.947 132.05 151.987 131.985 152.056 131.934C152.123 131.884 152.199 131.865 152.281 131.878L153.177 132.014C153.259 132.027 153.324 132.066 153.374 132.133C153.425 132.203 153.444 132.278 153.431 132.358L152.511 138.43L156.168 138.985" fill="white"/>
<path d="M162.682 136.472C162.732 135.935 162.623 135.497 162.353 135.158C162.085 134.818 161.691 134.609 161.173 134.531C160.656 134.452 160.218 134.535 159.859 134.781C159.501 135.024 159.269 135.409 159.158 135.937C159.101 136.216 159.044 136.526 158.994 136.87C158.942 137.213 158.902 137.528 158.873 137.81C158.822 138.345 158.931 138.783 159.202 139.118C159.472 139.453 159.866 139.661 160.383 139.738C160.901 139.818 161.339 139.736 161.695 139.495C162.053 139.256 162.288 138.871 162.397 138.345C162.456 138.066 162.51 137.754 162.563 137.41C162.613 137.067 162.653 136.754 162.682 136.472V136.472ZM157.67 135.654C157.756 135.244 157.894 134.866 158.085 134.521C158.277 134.177 158.527 133.89 158.835 133.66C159.141 133.431 159.505 133.268 159.929 133.169C160.352 133.071 160.836 133.062 161.383 133.146C161.923 133.228 162.38 133.377 162.755 133.592C163.13 133.808 163.43 134.072 163.654 134.387C163.881 134.699 164.036 135.049 164.119 135.43C164.205 135.814 164.228 136.218 164.186 136.643C164.172 136.784 164.153 136.941 164.132 137.111C164.109 137.28 164.086 137.456 164.059 137.639C164.029 137.819 164.002 137.995 163.973 138.162C163.943 138.332 163.914 138.487 163.885 138.626C163.801 139.036 163.661 139.413 163.47 139.759C163.277 140.105 163.028 140.392 162.722 140.62C162.414 140.851 162.047 141.012 161.622 141.106C161.194 141.199 160.712 141.205 160.174 141.125C159.627 141.042 159.166 140.893 158.791 140.677C158.416 140.461 158.114 140.197 157.89 139.887C157.664 139.577 157.511 139.229 157.431 138.843C157.349 138.456 157.328 138.056 157.37 137.639C157.383 137.496 157.402 137.341 157.423 137.169C157.446 137 157.471 136.824 157.498 136.643C157.525 136.461 157.552 136.287 157.582 136.117C157.611 135.948 157.64 135.793 157.67 135.654" fill="white"/>
<path d="M168.763 134.265C169.26 134.34 169.685 134.472 170.041 134.663C170.397 134.852 170.687 135.065 170.907 135.304C171.129 135.541 171.286 135.79 171.378 136.05C171.47 136.31 171.508 136.547 171.491 136.765C171.485 136.855 171.447 136.922 171.376 136.968C171.305 137.014 171.227 137.031 171.145 137.018L170.37 136.901C170.244 136.882 170.154 136.842 170.1 136.786C170.043 136.727 169.995 136.654 169.957 136.566C169.874 136.364 169.731 136.178 169.526 136.006C169.32 135.836 168.998 135.717 168.553 135.65C168.361 135.621 168.176 135.612 167.996 135.627C167.816 135.641 167.657 135.677 167.514 135.736C167.374 135.794 167.259 135.872 167.166 135.973C167.076 136.071 167.02 136.193 166.999 136.333C166.974 136.503 166.988 136.645 167.041 136.765C167.095 136.882 167.2 136.991 167.355 137.094C167.508 137.198 167.717 137.303 167.981 137.41C168.243 137.519 168.572 137.647 168.964 137.798C169.394 137.961 169.758 138.133 170.06 138.309C170.362 138.487 170.601 138.682 170.777 138.893C170.953 139.107 171.072 139.338 171.137 139.589C171.2 139.841 171.208 140.119 171.162 140.421C171.112 140.754 170.992 141.052 170.802 141.314C170.611 141.576 170.362 141.787 170.058 141.949C169.754 142.11 169.394 142.221 168.977 142.277C168.56 142.334 168.105 142.326 167.608 142.252C167.196 142.189 166.808 142.078 166.446 141.921C166.085 141.764 165.773 141.571 165.509 141.337C165.245 141.106 165.046 140.842 164.908 140.549C164.771 140.258 164.717 139.947 164.744 139.618C164.75 139.528 164.788 139.459 164.859 139.415C164.931 139.369 165.006 139.352 165.088 139.363L165.865 139.482C165.989 139.501 166.083 139.537 166.142 139.591C166.202 139.646 166.246 139.721 166.278 139.815C166.316 139.92 166.364 140.025 166.422 140.134C166.481 140.241 166.569 140.341 166.684 140.434C166.798 140.526 166.946 140.612 167.127 140.687C167.307 140.765 167.539 140.823 167.82 140.865C168.04 140.901 168.258 140.916 168.47 140.913C168.681 140.911 168.872 140.884 169.037 140.83C169.205 140.775 169.346 140.7 169.459 140.599C169.572 140.499 169.641 140.364 169.666 140.195C169.691 140.031 169.66 139.891 169.572 139.771C169.484 139.652 169.341 139.541 169.142 139.434C168.943 139.329 168.692 139.218 168.392 139.105C168.092 138.992 167.747 138.852 167.357 138.688C167.001 138.544 166.693 138.388 166.435 138.225C166.175 138.062 165.97 137.877 165.815 137.672C165.662 137.467 165.559 137.238 165.507 136.985C165.454 136.731 165.452 136.438 165.503 136.105C165.553 135.773 165.674 135.478 165.865 135.218C166.054 134.96 166.295 134.751 166.584 134.592C166.871 134.43 167.204 134.321 167.579 134.261C167.956 134.2 168.35 134.202 168.763 134.265" fill="white"/>
<path d="M177.465 142.217C177.547 142.227 177.612 142.269 177.662 142.336C177.712 142.405 177.731 142.479 177.721 142.56L177.601 143.348C177.589 143.428 177.549 143.495 177.48 143.545C177.413 143.595 177.337 143.614 177.256 143.602L172.39 142.864C172.31 142.852 172.243 142.812 172.193 142.743C172.143 142.676 172.124 142.6 172.137 142.518L173.222 135.361C173.235 135.279 173.274 135.214 173.344 135.164C173.411 135.113 173.486 135.095 173.568 135.107L178.343 135.83C178.425 135.843 178.49 135.882 178.54 135.952C178.59 136.019 178.609 136.094 178.597 136.176L178.477 136.961C178.467 137.043 178.425 137.108 178.358 137.158C178.289 137.209 178.215 137.228 178.134 137.215L174.555 136.672L174.286 138.435L177.622 138.942C177.704 138.952 177.769 138.994 177.819 139.061C177.87 139.13 177.888 139.204 177.876 139.285L177.756 140.073C177.744 140.153 177.704 140.22 177.637 140.27C177.568 140.32 177.495 140.339 177.413 140.327L174.077 139.82L173.798 141.659L177.465 142.217" fill="white"/>
<path d="M184.495 139.893C184.516 139.654 184.503 139.428 184.457 139.212C184.409 138.996 184.323 138.803 184.193 138.627C184.065 138.453 183.893 138.307 183.678 138.187C183.46 138.068 183.194 137.984 182.875 137.936L181.392 137.71L180.635 142.697L182.175 142.929C182.479 142.975 182.747 142.973 182.982 142.923C183.217 142.87 183.418 142.782 183.588 142.657C183.759 142.531 183.898 142.372 184.007 142.177C184.116 141.982 184.195 141.766 184.245 141.531C184.359 140.991 184.442 140.444 184.495 139.893V139.893ZM183.141 136.559C183.688 136.641 184.151 136.785 184.533 136.991C184.914 137.196 185.218 137.452 185.448 137.758C185.677 138.066 185.836 138.418 185.922 138.816C186.01 139.214 186.033 139.65 185.991 140.119C185.939 140.67 185.855 141.217 185.742 141.76C185.643 142.221 185.492 142.627 185.291 142.984C185.09 143.338 184.836 143.629 184.528 143.853C184.222 144.079 183.862 144.235 183.445 144.318C183.026 144.402 182.552 144.404 182.02 144.325L179.227 143.899C179.147 143.889 179.08 143.849 179.03 143.78C178.98 143.711 178.961 143.637 178.973 143.556L180.059 136.396C180.071 136.316 180.111 136.249 180.18 136.201C180.247 136.151 180.323 136.132 180.405 136.142L183.141 136.559Z" fill="white"/>
<path d="M308.665 170.936C308.665 173.363 307.82 175.33 306.779 175.33C305.738 175.33 304.893 173.363 304.893 170.936C304.893 168.51 305.738 166.542 306.779 166.542C307.82 166.542 308.665 168.51 308.665 170.936Z" fill="#4A75CB"/>
<path d="M312.227 170.935C312.227 174.98 310.821 178.259 309.084 178.259C307.349 178.259 305.94 174.98 305.94 170.935C305.94 166.891 307.349 163.612 309.084 163.612C310.821 163.612 312.227 166.891 312.227 170.935" fill="#77A4E5"/>
<path d="M315.215 163.266C317.063 163.694 325.413 163.794 331.276 162.478C332.498 162.204 333.614 161.869 334.538 161.46C335.643 160.974 336.477 160.385 336.9 159.677C337.564 158.573 338.775 154.793 340.202 149.837C344.127 136.186 349.652 113.627 349.652 113.627C349.652 113.627 338.557 115.892 336.211 117.826C333.862 119.758 331.789 150.422 329.581 151.249C329.256 151.373 328.694 151.629 327.976 151.983C327.94 152 327.904 152.018 327.869 152.035C327.441 152.247 326.957 152.492 326.436 152.76C321.855 155.113 314.274 159.354 313.488 160.297C312.453 161.542 312.522 162.646 315.215 163.266Z" fill="#FFA412"/>
<path d="M336.504 131.086C336.504 130.563 336.554 130.041 336.65 129.517C338.077 121.668 349.43 113.628 349.652 113.628L349.654 113.791C349.654 114.992 351.546 117.207 354.459 117.397C357.916 117.624 362.18 115.652 362.18 113.661C362.201 113.661 364.123 113.921 364.772 113.992C367.544 114.307 373.07 115.803 375.44 117.594C377.69 119.294 374.509 130.022 372.538 137.616C371.704 140.83 371.088 143.481 371.19 144.656C371.238 145.23 371.756 153.027 372.215 160.08C372.596 165.897 372.94 171.207 372.95 171.54C372.975 172.202 369.69 174.515 364.173 176.265C362.84 176.688 361.376 177.076 359.796 177.4C356.965 177.983 353.761 178.356 350.276 178.345C349.136 178.341 348.057 178.283 347.039 178.18C339.156 177.409 336.457 168.426 336.504 131.086" fill="#FFA412"/>
<path d="M362.179 113.566C362.246 110.518 362.195 106.878 361.782 103.802L349.613 105.79C349.613 105.79 349.6 109.508 349.652 113.627C349.646 113.629 349.321 117.449 354.032 118.008C358.738 118.568 362.306 116.517 362.179 113.566Z" fill="#D9935C"/>
<path d="M351.997 274.711C353.527 273.768 352.628 266.788 352.628 266.788C352.628 266.788 345.461 261.099 344.495 265.481C343.53 269.86 337.73 271.847 334.427 272.396C332.147 272.775 331.305 273.955 331.089 274.703L351.997 274.711Z" fill="#233862"/>
<path d="M363.145 154.705C363.145 166.374 368.802 163.229 372.215 160.08C371.756 153.027 371.432 128.045 371.432 128.045C371.432 128.045 363.145 137.99 363.145 154.705Z" fill="#E27F2B"/>
<path d="M326.436 152.76C326.662 154.397 329.248 159.164 331.276 162.479C332.497 162.204 333.614 161.869 334.538 161.46C335.643 160.974 336.476 160.385 336.9 159.677C337.564 158.573 338.775 154.793 340.202 149.837C339.146 143.738 338.144 137.715 338.144 137.715L337.832 133.676C337.832 133.986 333.103 151.736 330.962 152.15C329.671 152.4 328.755 152.096 327.976 151.983C327.94 152 327.904 152.018 327.869 152.035C327.441 152.247 326.957 152.492 326.436 152.76" fill="#E27F2B"/>
<path d="M373.959 274.711C375.488 273.768 374.589 266.788 374.589 266.788C374.589 266.788 367.423 261.099 366.457 265.481C365.491 269.86 359.691 271.847 356.389 272.396C354.109 272.775 353.279 273.955 353.063 274.703L373.959 274.711Z" fill="#233862"/>
<path d="M363.337 100.293C363.337 100.293 371.461 87.4836 355.861 86.6371C355.861 86.6371 350.01 87.3244 348.686 86.0001C348.686 86.0001 344.148 92.8981 348.386 100.293C352.623 107.687 363.337 100.293 363.337 100.293Z" fill="#233862"/>
<path d="M349.973 106.977C351.157 107.907 354.625 108.831 355.626 108.94C355.626 108.94 360.768 107.794 361.703 107.231C363.151 106.353 363.056 104.576 363.13 102.107C363.22 99.1844 363.513 96.8899 363.188 95.2053C362.801 93.1895 361.523 92.0433 357.944 91.7311C351.377 91.1612 348.64 92.806 348.527 95.0083C348.496 95.5992 348.469 96.1628 348.45 96.6972C348.188 103.564 348.73 105.999 349.973 106.977" fill="#D9935C"/>
<path d="M348.391 98.947C348.454 102.924 349.527 105.279 350.304 105.577C351.199 105.92 352.253 106.203 353.351 106.392C353.722 106.434 354.076 106.423 354.071 106.212C354.059 105.585 353.221 104.812 353.843 104.257C354.497 103.672 358.004 103.477 358.287 104.749C358.426 105.369 357.294 106.463 358.069 106.488C358.304 106.448 358.535 106.402 358.755 106.346C360.033 106.013 361.034 105.407 361.458 105.153C362.906 104.275 362.809 102.93 363.13 100.481C363.337 98.8967 363.337 99.7558 363.13 102.107C362.914 104.567 363.337 106.147 361.703 107.23C360.791 107.831 355.551 110.187 355.551 110.187C355.626 108.94 351.157 107.907 349.973 106.976C348.875 106.115 348.326 104.118 348.391 98.947Z" fill="#233862"/>
<path d="M372.951 171.539C372.976 172.202 369.688 174.515 364.171 176.264C363.727 176.407 363.268 176.541 362.794 176.673L362.782 176.688C362.268 182.727 360.875 191.257 359.618 199.49V199.492C359.293 201.625 358.977 203.739 358.687 205.784C357.92 211.196 357.346 216.127 357.286 219.676V219.712C357.258 221.342 358.631 225.405 358.736 226.342C358.798 226.916 358.851 227.524 358.889 228.158C359.037 230.702 358.977 233.707 358.773 236.913C357.87 250.91 354.172 268.819 352.854 269.582C350.23 271.099 345.457 269.58 343.031 269.226C342.025 269.077 341.222 268.22 341.273 267.208C342.459 243.978 339.054 211.626 336.51 191.739C336.445 191.221 336.378 190.712 336.313 190.213C336.009 187.869 335.808 185.679 335.682 183.703C335.565 181.972 335.51 180.399 335.485 179.037C335.479 178.611 335.475 178.205 335.473 177.821C335.466 176.577 336.455 168.426 336.502 131.086C336.504 130.223 337.21 129.517 338.071 129.517H360.906C363.115 129.517 364.89 131.323 364.862 133.529C364.827 136.377 364.929 140.354 365.548 144.151C366.39 149.335 368.194 154.179 371.92 155.344L371.928 155.353C371.947 155.39 372.047 155.617 372.211 155.994L372.213 156C372.249 156.937 372.286 157.892 372.33 158.865C372.339 159.059 372.347 159.256 372.358 159.453C372.362 159.569 372.368 159.684 372.374 159.799C372.383 159.996 372.393 160.195 372.404 160.394C372.418 160.721 372.435 161.05 372.452 161.383C372.467 161.645 372.481 161.907 372.496 162.169C372.523 162.674 372.555 163.187 372.588 163.703C372.596 163.868 372.607 164.032 372.62 164.199C372.661 164.866 372.708 165.545 372.76 166.226C372.775 166.435 372.791 166.645 372.808 166.856C372.812 166.957 372.821 167.06 372.829 167.16C372.85 167.428 372.871 167.694 372.894 167.965C372.917 168.248 372.942 168.535 372.967 168.822C373.057 169.869 372.923 170.804 372.951 171.539" fill="#2B478B"/>
<path d="M358.773 236.913C357.87 250.91 354.172 268.819 352.854 269.582C350.23 271.099 345.457 269.58 343.031 269.226C342.025 269.077 341.222 268.22 341.273 267.208C342.459 243.978 339.054 211.626 336.51 191.739C336.445 191.221 336.378 190.712 336.313 190.213C336.009 187.869 335.808 185.679 335.682 183.703C336.891 175.818 343.72 175.395 349.914 191.707C349.147 197.12 358.976 233.707 358.773 236.913Z" fill="#233862"/>
<path d="M373.206 219.016C373.395 220.636 375.287 224.483 375.515 225.399C378.646 237.99 376.917 267.842 375.364 269.037C372.963 270.885 368.031 270.007 365.579 269.973C364.563 269.959 363.655 269.215 363.574 268.205C361.648 244.418 353.671 211.747 348.541 192.529C345.958 182.848 345.593 175.73 345.593 175.73C345.593 175.73 369.567 161.041 372.161 169.067C374.455 176.166 371.76 206.593 373.206 219.016" fill="#2B478B"/>
<path d="M348.787 83.0539C348.952 82.8674 349.128 82.6872 349.313 82.5133C350.094 81.7694 351.037 81.1282 352.171 80.6568C356.349 78.9134 359.817 80.5227 361.984 82.1696C362.197 82.331 362.398 82.4944 362.585 82.6558C363.762 83.6552 364.42 84.55 364.42 84.55C364.42 84.55 366.451 87.318 366.382 93.1578L345.47 93.3799C345.47 93.3799 345.164 87.0749 348.787 83.0539" fill="#FFA412"/>
<path d="M360.514 93.2168L359.364 93.2314C359.341 92.8983 359.398 85.3089 362.228 82.3607C362.442 82.522 362.398 82.4948 362.585 82.6561C359.896 85.2502 360.508 93.1392 360.514 93.2168" fill="#E27F2B"/>
<path d="M351.427 93.317C351.188 88.6695 349.407 83.7873 348.927 82.9198C349.093 82.7291 349.128 82.6935 349.313 82.5133C349.646 83.0874 352.374 88.1435 352.663 93.3044L366.382 93.1578C366.382 93.1578 359.429 94.7167 355.234 94.7691C351.039 94.8215 345.47 93.3799 345.47 93.3799L351.427 93.317" fill="#E27F2B"/>
<path d="M365.594 114.103C365.594 114.103 358.528 122.336 358.113 129.516L361.713 129.707C361.713 129.707 362.62 121.709 367.939 114.595C367.939 114.595 367.107 114.394 366.83 114.34C366.459 114.266 365.594 114.103 365.594 114.103" fill="#2B478B"/>
<path d="M347.978 113.99C342.915 121.651 342.373 129.672 342.373 129.672L338.739 129.611C339.039 123.964 342.586 117.753 344.544 114.812C344.544 114.812 347.058 114.177 347.978 113.99Z" fill="#2B478B"/>
<path d="M355.869 192.985H358.786C360.141 192.369 367.448 189.205 374.47 189.166C379.536 189.138 385.311 192.925 385.659 192.965C386.539 193.067 382.723 193.103 382.723 193.103C382.723 193.103 377.005 190.572 374.436 190.513C371.987 190.456 366.549 192.235 364.378 192.985H380.731C382.097 192.985 383.216 194.104 383.216 195.471V214.117C383.216 215.486 382.097 216.604 380.731 216.604H355.869C354.501 216.604 353.382 215.486 353.382 214.117V195.471C353.382 194.104 354.501 192.985 355.869 192.985" fill="#FFA412"/>
<path d="M363.949 192.985H388.811C390.179 192.985 391.298 194.104 391.298 195.471V214.117C391.298 215.486 390.179 216.604 388.811 216.604H363.949C362.581 216.604 361.462 215.486 361.462 214.117V195.471C361.462 194.104 362.581 192.985 363.949 192.985Z" fill="#E27F2B"/>
<path d="M371.249 158.29C371.071 166.72 372.123 183.504 372.123 183.504H377.095C379.442 171.694 380.272 164.097 380.272 159.952C380.272 159.137 380.265 158.376 380.259 157.674C380.23 154.135 380.133 152.08 380.133 152.08C381.066 130.638 376.783 119.172 375.44 117.594C374.092 116.014 367.938 114.596 367.938 114.596C367.938 114.596 365.906 120.519 365.078 125.284C364.248 130.049 371.597 150.072 371.293 156.916C371.274 157.341 371.259 157.802 371.249 158.29Z" fill="#FFA412"/>
<path d="M372.123 183.504C372.123 183.504 371.071 166.72 371.249 158.29C375.226 157.008 378.432 157.291 380.259 157.674C380.266 158.376 380.272 159.137 380.272 159.952C380.272 164.097 379.442 171.695 377.095 183.504C378.13 187.854 378.061 192.55 376.266 193.38C374.47 194.207 368.532 191.1 368.601 189.719C368.67 188.338 372.123 183.504 372.123 183.504" fill="#D9935C"/>
<path d="M304.089 164.096C304.573 162.319 304.933 161.334 306.157 160.471C307.934 159.216 310.046 159.555 311.617 159.832C312.82 160.044 314.079 159.639 314.607 159.438C317.394 157.579 324.386 153.751 327.869 152.035C330.247 153.414 333.166 156.14 334.538 161.46C329.178 163.824 317.449 163.782 315.215 163.266C315.215 163.266 313.147 164.769 311.573 164.907C310.978 164.959 310.228 164.788 309.526 164.551C308.42 164.182 307.234 164.551 306.44 165.534C305.675 166.479 304.677 166.996 304.262 166.996C303.621 166.996 303.783 165.215 304.089 164.096" fill="#D9935C"/>
<path d="M240.288 147.893C242.258 153.927 253.001 164.356 254.487 165.397C254.487 165.397 256.986 161.23 256.486 158.898C256.079 156.993 251.895 150.204 250.464 146.868C250.388 146.694 250.323 146.529 250.265 146.376C250.068 145.864 249.965 145.468 249.988 145.234C250.059 144.509 252.337 142.744 254.985 140.653C258.426 137.933 262.493 134.663 263.153 132.402C264.318 128.402 268.36 112.567 268.36 112.567C268.36 112.567 258.319 114.738 255.486 117.237C252.653 119.737 240.49 140.567 239.989 145.9C239.934 146.48 240.043 147.155 240.288 147.893" fill="#FFA412"/>
<path d="M240.289 147.893C242.258 153.927 253.001 164.356 254.487 165.397C254.487 165.397 256.987 161.23 256.486 158.898C256.056 156.894 251.451 149.485 250.265 146.376C248.479 146.066 244.289 145.686 240.289 147.893" fill="#D9935C"/>
<path d="M268.356 111.176L268.362 112.406C268.362 112.406 268.029 116.251 272.765 116.812C277.5 117.376 281.067 115.658 280.937 112.691C280.511 110.392 280.065 108.469 280.034 106.568C280.021 105.862 280.069 105.112 280.201 104.265L271.023 104.081L268.32 104.523L268.356 111.176" fill="#D9935C"/>
<path d="M268.32 104.523L268.356 111.176C269.33 111.629 270.43 111.905 271.665 111.905C275.883 111.905 278.609 108.813 280.034 106.568C280.021 105.862 280.069 105.112 280.201 104.266L271.023 104.081L268.32 104.523Z" fill="#CB7D45"/>
<path d="M276.444 274.254C276.444 274.254 276.891 270.785 277.922 268.721C278.955 266.657 285.517 267.97 285.517 267.97C285.517 267.97 286.831 269.096 287.112 274.347L276.444 274.254" fill="#233862"/>
<path d="M254.08 274.242C255.622 273.301 254.744 266.278 254.744 266.278C254.744 266.278 247.557 260.528 246.568 264.93C245.581 269.333 239.742 271.309 236.416 271.847C234.122 272.22 233.411 273.492 233.191 274.242H254.08Z" fill="#233862"/>
<path d="M268.968 222.379C268.675 223.99 268.488 225.313 268.44 226.26C267.771 239.293 257.468 269.091 255.627 269.787C252.775 270.862 248.284 268.576 245.936 267.828C244.963 267.515 244.305 266.535 244.523 265.54C249.625 242.084 251.499 208.311 252.182 188.315C252.525 178.242 254.256 171.286 254.256 171.286C254.256 171.286 279.382 164.582 279.531 173.062C279.663 180.566 271.208 209.998 268.968 222.379" fill="#2B478B"/>
<path d="M268.968 222.379L252.182 188.315C252.525 178.242 254.256 171.285 254.256 171.285C254.256 171.285 279.382 164.582 279.53 173.062C279.662 180.566 271.208 209.997 268.968 222.379" fill="#233862"/>
<path d="M263.377 173.092L276.66 269.364C276.66 269.364 282.493 270.772 287.03 269.647C287.03 269.647 290.919 218.445 290.594 206.065C290.271 193.688 293.385 172.944 289.884 170.655C286.382 168.367 263.377 173.092 263.377 173.092" fill="#2B478B"/>
<path d="M253.531 173.27C253.531 173.27 260.32 177.228 270.152 177.117C273.984 177.073 277.318 176.786 280.149 176.365C288.034 175.195 292.013 172.993 291.981 172.174C291.954 171.434 291.902 168.976 291.81 167.92C290.557 153.468 291.204 142.229 289.517 133.785C289.498 133.684 289.477 133.581 289.456 133.481C287.225 122.746 283.728 116.579 281.991 114.05C281.356 113.126 280.958 112.69 280.937 112.69C280.937 114.694 276.673 116.422 273.194 116.196C270.265 116.005 268.362 113.776 268.362 112.569L268.36 112.567C268.119 112.567 255.145 121.585 255.134 129.965C255.088 167.522 252.813 173.282 253.531 173.27" fill="#FFA412"/>
<path d="M280.13 176.242C280.136 176.284 280.14 176.325 280.149 176.365C288.033 175.196 292.013 172.994 291.981 172.174C291.954 171.435 291.901 168.977 291.809 167.921C290.556 153.469 291.204 142.23 289.517 133.785C285.379 139.317 276.869 153.806 280.13 176.242" fill="#E27F2B"/>
<path d="M278.871 163.843C289.808 162.102 297.037 157.519 300.004 155.304C301.019 154.546 301.534 154.066 301.534 154.066C307.139 142.283 297 121.627 295.147 118.126C293.146 114.35 280.937 112.691 280.937 112.691C280.937 112.691 282.887 118.426 283.648 125.904C284.411 133.38 292.536 147.954 292.203 149.177C292.119 149.485 291.137 150.133 289.706 150.948C285.463 153.366 277.259 157.261 276.763 158.177C276.094 159.398 278.871 163.843 278.871 163.843" fill="#D9935C"/>
<path d="M283.648 125.905C284.411 133.381 292.536 147.954 292.203 149.178C292.119 149.486 291.137 150.133 289.706 150.948C289.796 150.957 289.888 150.959 289.98 150.955C296.373 150.672 299.267 154.209 300.004 155.305C301.019 154.546 301.534 154.066 301.534 154.066C307.139 142.284 297 121.628 295.147 118.127C293.146 114.351 280.937 112.691 280.937 112.691C280.937 112.691 282.887 118.426 283.648 125.905Z" fill="#FFA412"/>
<path d="M267.786 107.756C267.786 107.756 279.539 110.13 280.905 102.788C282.271 95.4456 284.708 90.8065 277.261 88.9814C269.814 87.1542 267.832 89.6854 266.78 92.0239C265.728 94.3644 264.764 106.949 267.786 107.756" fill="#D9935C"/>
<path d="M280.67 104.904C280.67 104.904 282.942 100.056 284.838 97.9016C286.732 95.7496 285.699 84.9815 277.515 85.3272C269.332 85.6709 266.405 91.5274 266.319 92.6485C266.231 93.7674 272.865 92.9062 274.673 94.3709C276.482 95.8355 274.759 98.2473 276.828 99.1085C278.894 99.9697 280.53 99.9697 280.186 101.864C279.841 103.758 280.67 104.904 280.67 104.904Z" fill="#233862"/>
<path d="M278.146 80.3276C280.486 80.9164 282.242 81.8552 283.554 82.9867C283.684 83.0977 283.812 83.2129 283.933 83.3303V83.3324C288.786 87.959 286.85 95.3242 286.85 95.3242C286.85 95.3242 286.204 97.1849 285.76 97.9078C285.316 98.6286 278.873 97.7967 278.54 96.4075C278.204 95.0183 276.928 93.5746 276.928 93.5746C276.928 93.5746 270.135 93.1073 269.678 93.0759C268.144 92.9648 263.765 91.4394 263.765 91.4394C263.815 91.0098 266.28 77.348 278.146 80.3276" fill="#FFA412"/>
<path d="M259.742 89.9983C260.557 89.7992 261.946 89.5771 264.234 89.4933C264.234 89.4933 266.158 91.0858 269.98 92.299C271.776 90.036 276.892 84.5817 283.554 82.9871C283.575 82.9829 283.591 82.9767 283.612 82.9725C283.755 83.1506 283.834 83.2113 283.933 83.3308V83.3329C283.964 83.3664 283.996 83.4083 284.029 83.4607C278.607 84.4057 273.452 90.497 271.683 92.7767C273.2 93.1497 274.948 93.4452 276.928 93.5751C276.928 93.5751 265.058 93.7972 259.631 90.9391C259.218 90.7233 259.287 90.1093 259.742 89.9983" fill="#E27F2B"/>
<path d="M247.656 143.899C247.874 145.146 248.546 146.457 250.464 146.868C250.388 146.694 250.323 146.529 250.265 146.376C250.068 145.864 249.965 145.468 249.988 145.234C250.059 144.509 252.337 142.744 254.986 140.653C255.204 139.467 255.738 135.947 254.988 133.152C254.07 129.736 247.404 142.483 247.656 143.899Z" fill="#E27F2B"/>
<path d="M290.982 150.107C290.982 150.107 299.145 149.441 301.813 154.189C301.813 154.189 301.584 155.792 300.004 155.304C300.004 155.304 293.098 150.583 289.706 150.948C289.706 150.948 290.232 150.12 290.982 150.107" fill="#E27F2B"/>
<path d="M250.464 146.868C250.464 146.868 246.229 147.046 240.896 149.368C240.896 149.368 239.712 148.205 240.184 147.539C240.655 146.873 248.163 144.475 250.464 146.868Z" fill="#E27F2B"/>
<path d="M257.409 146.231L256.412 147.185L258.193 148.815L258.346 148.67L265.908 156.562L266.363 156.128L258.799 148.237L258.95 148.09L257.409 146.231" fill="#2B478B"/>
<path d="M273.567 164.084C273.15 164.486 272.486 164.472 272.086 164.055L265.948 157.649C265.548 157.232 265.563 156.568 265.98 156.168C266.397 155.768 267.061 155.782 267.461 156.199L273.599 162.605C273.999 163.022 273.986 163.684 273.567 164.084" fill="#233862"/>
<path d="M276.76 158.175C276.76 158.175 270.65 155.732 269.15 156.731C267.652 157.731 265.152 159.231 265.152 160.23C265.152 161.23 268.318 163.897 270.983 164.729C273.651 165.563 278.872 163.841 278.872 163.841L276.76 158.175" fill="#D9935C"/>
<path d="M495.545 276.434H0.726049C0.326672 276.434 0 276.107 0 275.707V274.965C0 274.565 0.326672 274.238 0.726049 274.238H495.545C495.945 274.238 496.272 274.565 496.272 274.965V275.707C496.272 276.107 495.945 276.434 495.545 276.434Z" fill="#2B478B"/>
</svg>
